<svg width="100" height="100" viewBox="0 0 49 49" fill="none" xmlns="http://www.w3.org/2000/svg">
<g id="&#240;&#159;&#166;&#134; emoji &#34;angry face&#34;">
<path id="Vector" d="M24.0706 0C10.7772 0 0 10.7772 0 24.0706C0 37.364 10.7772 48.1412 24.0706 48.1412C37.364 48.1412 48.1412 37.364 48.1412 24.0706C48.1412 10.7772 37.364 0 24.0706 0ZM24.0706 46.1353C11.9037 46.1353 2.00588 36.2375 2.00588 24.0706C2.00588 11.9037 11.9037 2.00588 24.0706 2.00588C36.2367 2.00588 46.1353 11.9037 46.1353 24.0706C46.1353 36.2375 36.2367 46.1353 24.0706 46.1353Z" fill="#667080"/>
<path id="Vector_2" d="M24.0706 31.9609C20.4295 31.9609 17.586 34.4145 16.1778 37.1698C15.8007 37.9064 16.3022 38.7039 16.859 38.2442C21.479 34.4161 26.6349 34.3929 31.2829 38.2442C31.839 38.7039 32.3405 37.9064 31.9633 37.1698C30.5552 34.4145 27.7125 31.9609 24.0706 31.9609Z" fill="#667080"/>
<path id="Vector_3" d="M18.2928 23.0268C18.3217 22.9658 18.3289 22.8993 18.3273 22.8294C19.2123 23.4978 20.0644 24.2472 20.9446 25.1266C20.7817 23.6141 20.0419 22.1948 19.047 21.0225C18.0441 19.8503 16.7587 18.9035 15.3594 18.2616C13.9553 17.6109 12.4147 17.2491 10.8742 17.2354C9.33851 17.229 7.82447 17.5724 6.55194 18.4029C7.78034 18.5216 8.86673 18.6909 9.93145 18.9364C9.88572 18.9765 9.8464 19.0215 9.82073 19.0768C8.72873 21.4165 9.74049 24.1967 12.0786 25.2887C14.4206 26.3791 17.2008 25.3665 18.2928 23.0268Z" fill="#667080"/>
<path id="Vector_4" d="M37.2667 17.2346C35.7262 17.249 34.1857 17.6109 32.7816 18.2608C31.3823 18.9035 30.0969 19.8494 29.094 21.0217C28.0991 22.1939 27.3593 23.6133 27.1964 25.1257C28.0766 24.2455 28.9287 23.4969 29.8137 22.8286C29.8121 22.8984 29.8193 22.965 29.8482 23.026C30.9402 25.3656 33.7203 26.3782 36.0616 25.287C38.3997 24.195 39.4122 21.4148 38.3194 19.0752C38.2938 19.0206 38.2544 18.9749 38.2087 18.9348C39.2734 18.6892 40.3606 18.5199 41.5882 18.4012C40.3165 17.5716 38.8025 17.2289 37.2667 17.2346Z" fill="#667080"/>
</g>
</svg>
