<svg width="100" height="100" viewBox="0 0 100 100" fill="none" xmlns="http://www.w3.org/2000/svg">
<g id="&#240;&#159;&#166;&#134; emoji &#34;angry face&#34;">
<path id="Vector" d="M50 0C22.3867 0 0 22.3867 0 50C0 77.6133 22.3867 100 50 100C77.6133 100 100 77.6133 100 50C100 22.3867 77.6133 0 50 0ZM50 95.8333C24.7267 95.8333 4.16667 75.2733 4.16667 50C4.16667 24.7267 24.7267 4.16667 50 4.16667C75.2717 4.16667 95.8333 24.7267 95.8333 50C95.8333 75.2733 75.2717 95.8333 50 95.8333Z" fill="#CE4139"/>
<path id="Vector_2" d="M50.0001 66.39C42.4367 66.39 36.5301 71.4866 33.6051 77.21C32.8217 78.74 33.8634 80.3966 35.0201 79.4416C44.6167 71.49 55.3267 71.4416 64.9817 79.4416C66.1367 80.3966 67.1784 78.74 66.3951 77.21C63.4701 71.4866 57.5651 66.39 50.0001 66.39Z" fill="#CE4139"/>
<path id="Vector_3" d="M37.9982 47.8317C38.0582 47.705 38.0732 47.5667 38.0699 47.4217C39.9082 48.81 41.6782 50.3667 43.5065 52.1933C43.1682 49.0517 41.6315 46.1033 39.5649 43.6683C37.4815 41.2333 34.8115 39.2667 31.9049 37.9333C28.9882 36.5817 25.7882 35.83 22.5882 35.8017C19.3982 35.7883 16.2532 36.5017 13.6099 38.2267C16.1615 38.4733 18.4182 38.825 20.6299 39.335C20.5349 39.4183 20.4532 39.5117 20.3999 39.6267C18.1315 44.4867 20.2332 50.2617 25.0899 52.53C29.9549 54.795 35.7299 52.6917 37.9982 47.8317Z" fill="#CE4139"/>
<path id="Vector_4" d="M77.4115 35.8C74.2115 35.83 71.0115 36.5817 68.0948 37.9317C65.1882 39.2667 62.5182 41.2317 60.4348 43.6667C58.3682 46.1017 56.8315 49.05 56.4932 52.1917C58.3215 50.3633 60.0915 48.8083 61.9298 47.42C61.9265 47.565 61.9415 47.7033 62.0015 47.83C64.2698 52.69 70.0448 54.7933 74.9082 52.5267C79.7648 50.2583 81.8682 44.4833 79.5982 39.6233C79.5448 39.51 79.4632 39.415 79.3682 39.3317C81.5798 38.8217 83.8382 38.47 86.3882 38.2233C83.7465 36.5 80.6015 35.7883 77.4115 35.8Z" fill="#CE4139"/>
</g>
</svg>
