<svg width="100" height="100" viewBox="0 0 100 100" fill="none" xmlns="http://www.w3.org/2000/svg">
<g id="&#240;&#159;&#166;&#134; emoji &#34;confounded face&#34;">
<path id="Vector" d="M50 0C22.3867 0 0 22.3867 0 50C0 77.6133 22.3867 100 50 100C77.6133 100 100 77.6133 100 50C100 22.3867 77.6133 0 50 0ZM50 95.8333C24.7267 95.8333 4.16667 75.2733 4.16667 50C4.16667 24.7267 24.7267 4.16667 50 4.16667C75.2733 4.16667 95.8333 24.7267 95.8333 50C95.8333 75.2733 75.2733 95.8333 50 95.8333Z" fill="#48974E"/>
<path id="Vector_2" d="M36.6532 29.7751C37.5549 28.9934 35.0349 26.3401 34.2966 26.9851C28.9032 31.5384 21.7582 33.4534 14.8082 32.2068C13.8449 32.0184 12.9949 35.5751 14.1666 35.8001C22.1816 37.2401 30.4266 35.0334 36.6532 29.7751Z" fill="#48974E"/>
<path id="Vector_3" d="M85.1882 31.9533C78.2416 33.1999 71.0966 31.2866 65.7032 26.7316C64.9649 26.0833 62.4449 28.7399 63.3499 29.5216C69.5699 34.7749 77.8166 36.9866 85.8366 35.5466C87.0082 35.3216 86.1549 31.7649 85.1882 31.9533Z" fill="#48974E"/>
<path id="Vector_4" d="M74.2765 67.3266C73.3848 66.2783 71.7215 66.0467 70.5782 66.8117L63.4998 71.5467C62.3565 72.3117 60.5698 72.2033 59.5282 71.3033L51.8915 64.725C50.8498 63.8283 49.1448 63.83 48.1032 64.7266L40.4982 71.29C39.4565 72.1866 37.6698 72.2966 36.5265 71.5333L29.4232 66.7883C28.2798 66.025 26.6132 66.2583 25.7248 67.305L18.2865 76.0566C17.3948 77.1033 17.6515 77.4166 18.8565 76.7533L25.1482 73.2833C26.3532 72.62 28.1432 72.8616 29.1265 73.8216L36.8382 81.3483C37.8215 82.3083 39.5198 82.4116 40.6115 81.575L48.0532 75.875C49.1432 75.0383 50.9315 75.0383 52.0248 75.875L59.4298 81.545C60.5198 82.3816 62.2198 82.2783 63.2032 81.3167L70.8698 73.8267C71.8532 72.865 73.6432 72.6217 74.8482 73.285L81.1465 76.755C82.3515 77.4167 82.6048 77.105 81.7132 76.0566L74.2765 67.3266Z" fill="#48974E"/>
<path id="Vector_5" d="M68.7467 49.25C73.2617 46.75 78.0183 45.9867 82.5067 45.315C83.2817 45.2 83.7233 44.05 82.7833 43.4917C73.2883 37.83 57.845 42.36 55.1017 54.3667C54.9283 55.11 55.625 55.58 56.4366 55.4967C66.7167 54.44 74.8933 56.0034 82.8467 58.89C83.585 59.1584 84.41 58.0884 83.7516 57.2984C80.83 53.7984 75.45 50.3617 68.7467 49.25Z" fill="#48974E"/>
<path id="Vector_6" d="M43.5683 55.4966C44.3783 55.58 45.0717 55.1116 44.9033 54.3666C42.16 42.36 26.7167 37.8283 17.2183 43.4916C16.28 44.05 16.7233 45.1983 17.4983 45.315C21.9867 45.9866 26.7433 46.75 31.2583 49.25C24.5567 50.3616 19.175 53.7983 16.255 57.2983C15.595 58.0883 16.4217 59.1583 17.1567 58.89C25.11 56.0033 33.2883 54.44 43.5683 55.4966Z" fill="#48974E"/>
</g>
</svg>
