<svg width="100" height="100" viewBox="0 0 49 49" fill="none" xmlns="http://www.w3.org/2000/svg">
<g id="&#240;&#159;&#166;&#134; emoji &#34;confounded face&#34;">
<path id="Vector" d="M24.9295 0C11.6361 0 0.858887 10.7772 0.858887 24.0706C0.858887 37.364 11.6361 48.1412 24.9295 48.1412C38.2229 48.1412 49.0001 37.364 49.0001 24.0706C49.0001 10.7772 38.2229 0 24.9295 0ZM24.9295 46.1353C12.7626 46.1353 2.86477 36.2375 2.86477 24.0706C2.86477 11.9037 12.7626 2.00588 24.9295 2.00588C37.0964 2.00588 46.9942 11.9037 46.9942 24.0706C46.9942 36.2375 37.0964 46.1353 24.9295 46.1353Z" fill="#667080"/>
<path id="Vector_2" d="M18.5043 14.3341C18.9383 13.9578 17.7252 12.6804 17.3697 12.9909C14.7733 15.183 11.3336 16.1049 7.98781 15.5047C7.52405 15.414 7.11485 17.1263 7.67891 17.2346C11.5374 17.9278 15.5067 16.8655 18.5043 14.3341Z" fill="#667080"/>
<path id="Vector_3" d="M41.8695 15.3827C38.5253 15.9828 35.0856 15.0617 32.4892 12.8689C32.1338 12.5568 30.9206 13.8357 31.3563 14.212C34.3507 16.7411 38.3207 17.8058 42.1816 17.1126C42.7457 17.0042 42.3349 15.292 41.8695 15.3827Z" fill="#667080"/>
<path id="Vector_4" d="M36.6165 32.4119C36.1872 31.9072 35.3865 31.7957 34.8361 32.164L31.4285 34.4434C30.8781 34.8117 30.0179 34.7596 29.5165 34.3263L25.8401 31.1594C25.3386 30.7277 24.5178 30.7285 24.0163 31.1602L20.3552 34.3199C19.8537 34.7515 18.9936 34.8045 18.4432 34.437L15.0236 32.1527C14.4731 31.7852 13.6708 31.8976 13.2431 32.4015L9.66224 36.6146C9.23298 37.1185 9.35654 37.2693 9.93664 36.95L12.9655 35.2795C13.5456 34.9602 14.4074 35.0765 14.8807 35.5387L18.5932 39.1621C19.0666 39.6242 19.8842 39.674 20.4098 39.2712L23.9923 36.5272C24.517 36.1244 25.3779 36.1244 25.9043 36.5272L29.4691 39.2568C29.9939 39.6595 30.8123 39.6098 31.2857 39.1468L34.9765 35.5411C35.4499 35.0781 36.3116 34.961 36.8917 35.2803L39.9238 36.9508C40.5039 37.2693 40.6259 37.1193 40.1966 36.6146L36.6165 32.4119Z" fill="#667080"/>
<path id="Vector_5" d="M33.9543 23.7096C36.1279 22.5061 38.4178 22.1386 40.5786 21.8153C40.9517 21.7599 41.1643 21.2063 40.7118 20.9375C36.1408 18.2119 28.7061 20.3927 27.3855 26.1729C27.302 26.5307 27.6374 26.757 28.0282 26.7168C32.9771 26.2082 36.9134 26.9608 40.7423 28.3504C41.0977 28.4796 41.4949 27.9645 41.1779 27.5842C39.7714 25.8993 37.1814 24.2448 33.9543 23.7096Z" fill="#667080"/>
<path id="Vector_6" d="M21.8332 26.7168C22.2231 26.757 22.5569 26.5315 22.4759 26.1728C21.1552 20.3927 13.7206 18.2111 9.14799 20.9375C8.69627 21.2063 8.90969 21.7591 9.28279 21.8153C11.4435 22.1386 13.7334 22.5061 15.907 23.7096C12.6808 24.2448 10.09 25.8992 8.68423 27.5842C8.3665 27.9645 8.76447 28.4796 9.1183 28.3504C12.9471 26.9607 16.8843 26.2081 21.8332 26.7168Z" fill="#667080"/>
</g>
</svg>
