<svg width="100" height="100" viewBox="0 0 100 100" fill="none" xmlns="http://www.w3.org/2000/svg">
<g id="&#240;&#159;&#166;&#134; emoji &#34;disappointed but relieved face&#34;">
<path id="Vector" d="M50 0C22.38 0 0 22.38 0 50C0 77.62 22.38 100 50 100C77.62 100 100 77.62 100 50C100 22.38 77.62 0 50 0ZM50 95.8333C24.7267 95.8333 4.16667 75.2733 4.16667 50C4.16667 24.7267 24.7267 4.16667 50 4.16667C75.2717 4.16667 95.8333 24.7267 95.8333 50C95.8333 52.2617 95.6617 54.4833 95.3433 56.66C93.9467 47.2267 85.86 38.7167 85.86 38.7167C85.86 38.7167 76.1467 48.905 76.1467 59.3417C76.1467 69.93 86.8017 72.6683 92.3267 67.57C85.4183 84.1467 69.0517 95.8333 50 95.8333Z" fill="#882A9B"/>
<path id="Vector_2" d="M60.8299 63.3333C65.4323 63.3333 69.1632 59.6023 69.1632 55C69.1632 50.3976 65.4323 46.6666 60.8299 46.6666C56.2275 46.6666 52.4966 50.3976 52.4966 55C52.4966 59.6023 56.2275 63.3333 60.8299 63.3333Z" fill="#882A9B"/>
<path id="Vector_3" d="M22.4967 63.3333C27.099 63.3333 30.83 59.6023 30.83 55C30.83 50.3976 27.099 46.6666 22.4967 46.6666C17.8943 46.6666 14.1633 50.3976 14.1633 55C14.1633 59.6023 17.8943 63.3333 22.4967 63.3333Z" fill="#882A9B"/>
<path id="Vector_4" d="M33.32 32.6333C34.2217 31.8516 31.7017 29.1983 30.9633 29.8433C25.57 34.3967 18.425 36.3116 11.475 35.065C10.5117 34.8766 9.66165 38.4333 10.8333 38.6583C18.8483 40.0983 27.0933 37.89 33.32 32.6333Z" fill="#882A9B"/>
<path id="Vector_5" d="M71.855 34.8117C64.9083 36.0583 57.7633 34.145 52.37 29.59C51.6316 28.9417 49.1116 31.5983 50.0166 32.38C56.2366 37.6333 64.4833 39.845 72.5033 38.405C73.675 38.18 72.8216 34.6217 71.855 34.8117Z" fill="#882A9B"/>
<path id="Vector_6" d="M60.1233 75.55C50.5133 72.9683 40.0417 74.8366 31.9067 80.5733C29.8983 82.0216 33.6617 87.285 35.66 85.8266C41.0317 82.0466 49.58 79.4366 58.4267 81.7733C60.7983 82.4016 62.6533 76.26 60.1233 75.55Z" fill="#882A9B"/>
</g>
</svg>
