<svg width="100" height="100" viewBox="0 0 49 49" fill="none" xmlns="http://www.w3.org/2000/svg">
<g id="&#240;&#159;&#166;&#134; emoji &#34;disappointed but relieved face&#34;">
<path id="Vector" d="M24.3099 0C11.0133 0 0.239258 10.774 0.239258 24.0706C0.239258 37.3672 11.0133 48.1412 24.3099 48.1412C37.6065 48.1412 48.3805 37.3672 48.3805 24.0706C48.3805 10.774 37.6065 0 24.3099 0ZM24.3099 46.1353C12.143 46.1353 2.24514 36.2375 2.24514 24.0706C2.24514 11.9037 12.143 2.00588 24.3099 2.00588C36.4759 2.00588 46.3746 11.9037 46.3746 24.0706C46.3746 25.1594 46.2919 26.2289 46.1387 27.2768C45.4663 22.7355 41.5733 18.6387 41.5733 18.6387C41.5733 18.6387 36.8972 23.5435 36.8972 28.5678C36.8972 33.6651 42.0266 34.9834 44.6864 32.529C41.3607 40.5092 33.4816 46.1353 24.3099 46.1353Z" fill="#667080"/>
<path id="Vector_2" d="M29.5235 30.4894C31.7392 30.4894 33.5353 28.6932 33.5353 26.4776C33.5353 24.2619 31.7392 22.4658 29.5235 22.4658C27.3079 22.4658 25.5118 24.2619 25.5118 26.4776C25.5118 28.6932 27.3079 30.4894 29.5235 30.4894Z" fill="#667080"/>
<path id="Vector_3" d="M11.0693 30.4894C13.285 30.4894 15.0811 28.6932 15.0811 26.4776C15.0811 24.2619 13.285 22.4658 11.0693 22.4658C8.85369 22.4658 7.05756 24.2619 7.05756 26.4776C7.05756 28.6932 8.85369 30.4894 11.0693 30.4894Z" fill="#667080"/>
<path id="Vector_4" d="M16.2798 15.7101C16.7139 15.3337 15.5007 14.0564 15.1453 14.3669C12.5489 16.5589 9.1092 17.4808 5.76339 16.8807C5.29963 16.79 4.89043 18.5022 5.45448 18.6106C9.313 19.3038 13.2822 18.2407 16.2798 15.7101Z" fill="#667080"/>
<path id="Vector_5" d="M34.8311 16.7588C31.4869 17.3589 28.0472 16.4378 25.4508 14.245C25.0954 13.9329 23.8822 15.2118 24.3179 15.5881C27.3123 18.1172 31.2823 19.1819 35.1432 18.4887C35.7073 18.3803 35.2965 16.6673 34.8311 16.7588Z" fill="#667080"/>
<path id="Vector_6" d="M29.1835 36.3707C24.5571 35.1278 19.5159 36.0273 15.5996 38.789C14.6328 39.4862 16.4445 42.0201 17.4065 41.318C19.9925 39.4983 24.1078 38.2418 28.3667 39.3667C29.5084 39.6692 30.4014 36.7125 29.1835 36.3707Z" fill="#667080"/>
</g>
</svg>
