<svg width="27" height="28" viewBox="0 0 27 28" fill="none" xmlns="http://www.w3.org/2000/svg">
    <path d="M20.2499 9.22838C20.2161 9.22838 20.1936 9.22838 20.1599 9.22838H20.1036C17.9774 9.15838 16.3911 7.45503 16.3911 5.35503C16.3911 3.20837 18.0786 1.47003 20.1374 1.47003C22.1961 1.47003 23.8836 3.22003 23.8836 5.35503C23.8724 7.4667 22.2861 9.17004 20.2611 9.24004C20.2611 9.22837 20.2611 9.22838 20.2499 9.22838ZM20.1374 3.20837C19.0011 3.20837 18.0786 4.16504 18.0786 5.34337C18.0786 6.49837 18.9449 7.43171 20.0586 7.47838C20.0699 7.46671 20.1599 7.46671 20.2611 7.47838C21.3524 7.42004 22.1961 6.48671 22.2074 5.34337C22.2074 4.16504 21.2849 3.20837 20.1374 3.20837Z" fill="#77CEFF"/>
    <path d="M20.2613 17.8267C19.8226 17.8267 19.3838 17.7917 18.9451 17.71C18.4838 17.6283 18.1801 17.1733 18.2588 16.695C18.3376 16.2167 18.7763 15.9017 19.2376 15.9833C20.6213 16.2283 22.0838 15.96 23.0626 15.2834C23.5913 14.9217 23.8726 14.4667 23.8726 14.0117C23.8726 13.5567 23.5801 13.1133 23.0626 12.7517C22.0838 12.075 20.5988 11.8067 19.2038 12.0633C18.7426 12.1567 18.3038 11.83 18.2251 11.3517C18.1463 10.8733 18.4501 10.4183 18.9113 10.3367C20.7451 9.99835 22.6463 10.36 23.9963 11.2933C24.9863 11.9817 25.5601 12.9617 25.5601 14.0117C25.5601 15.05 24.9976 16.0417 23.9963 16.7417C22.9726 17.4417 21.6451 17.8267 20.2613 17.8267Z" fill="#77CEFF"/>
    <path d="M6.71629 9.22832C6.70504 9.22832 6.69379 9.22832 6.69379 9.22832C4.66879 9.15832 3.08254 7.45498 3.07129 5.35498C3.07129 3.20831 4.75879 1.45831 6.81754 1.45831C8.87629 1.45831 10.5638 3.20832 10.5638 5.34331C10.5638 7.45498 8.97754 9.15832 6.95254 9.22832L6.71629 8.35332L6.79504 9.22832C6.77254 9.22832 6.73879 9.22832 6.71629 9.22832ZM6.82879 7.47832C6.89629 7.47832 6.95254 7.47831 7.02004 7.48998C8.02129 7.44331 8.89879 6.50998 8.89879 5.35498C8.89879 4.17664 7.97629 3.21997 6.84004 3.21997C5.70379 3.21997 4.78129 4.17664 4.78129 5.35498C4.78129 6.49831 5.63629 7.41998 6.72754 7.48998C6.73879 7.47831 6.78379 7.47832 6.82879 7.47832Z" fill="#77CEFF"/>
    <path d="M6.705 17.8267C5.32125 17.8267 3.99375 17.4417 2.97 16.7417C1.98 16.0534 1.40625 15.0617 1.40625 14.0117C1.40625 12.9733 1.98 11.9817 2.97 11.2933C4.32 10.36 6.22125 9.99835 8.055 10.3367C8.51625 10.4183 8.82 10.8733 8.74125 11.3517C8.6625 11.83 8.22375 12.1567 7.7625 12.0633C6.3675 11.8067 4.89375 12.075 3.90375 12.7517C3.375 13.1133 3.09375 13.5567 3.09375 14.0117C3.09375 14.4667 3.38625 14.9217 3.90375 15.2834C4.8825 15.96 6.345 16.2283 7.72875 15.9833C8.19 15.9017 8.62875 16.2283 8.7075 16.695C8.78625 17.1733 8.4825 17.6283 8.02125 17.71C7.5825 17.7917 7.14375 17.8267 6.705 17.8267Z" fill="#77CEFF"/>
    <path d="M13.4999 17.9433C13.4661 17.9433 13.4436 17.9433 13.4099 17.9433H13.3536C11.2274 17.8733 9.64111 16.17 9.64111 14.07C9.64111 11.9233 11.3286 10.185 13.3874 10.185C15.4461 10.185 17.1336 11.935 17.1336 14.07C17.1224 16.1817 15.5361 17.885 13.5111 17.955C13.5111 17.9433 13.5111 17.9433 13.4999 17.9433ZM13.3874 11.9233C12.2511 11.9233 11.3286 12.88 11.3286 14.0583C11.3286 15.2133 12.1949 16.1467 13.3086 16.1933C13.3199 16.1817 13.4099 16.1817 13.5111 16.1933C14.6024 16.135 15.4461 15.2017 15.4574 14.0583C15.4574 12.8917 14.5349 11.9233 13.3874 11.9233Z" fill="#77CEFF"/>
    <path d="M13.4997 26.5533C12.1497 26.5533 10.7997 26.1916 9.75345 25.4566C8.76345 24.7683 8.1897 23.7883 8.1897 22.7383C8.1897 21.7 8.7522 20.6966 9.75345 20.0083C11.8572 18.5616 15.1535 18.5616 17.246 20.0083C18.236 20.6966 18.8097 21.6766 18.8097 22.7266C18.8097 23.7649 18.2472 24.7683 17.246 25.4566C16.1997 26.18 14.8497 26.5533 13.4997 26.5533ZM10.6872 21.4783C10.1584 21.84 9.8772 22.295 9.8772 22.75C9.8772 23.205 10.1697 23.6483 10.6872 24.01C12.2059 25.0716 14.7822 25.0716 16.301 24.01C16.8297 23.6483 17.1109 23.1933 17.1109 22.7383C17.1109 22.2833 16.8185 21.84 16.301 21.4783C14.7935 20.4166 12.2172 20.4283 10.6872 21.4783Z" fill="#77CEFF"/>
</svg>
