<svg width="50" height="50" viewBox="0 0 50 50" fill="none" xmlns="http://www.w3.org/2000/svg">
    <path d="M42.1875 7.8125H7.8125C6.9837 7.8125 6.18884 8.14174 5.60279 8.72779C5.01674 9.31384 4.6875 10.1087 4.6875 10.9375V39.0625C4.6875 39.8913 5.01674 40.6862 5.60279 41.2722C6.18884 41.8583 6.9837 42.1875 7.8125 42.1875H42.1875C43.0163 42.1875 43.8112 41.8583 44.3972 41.2722C44.9833 40.6862 45.3125 39.8913 45.3125 39.0625V10.9375C45.3125 10.1087 44.9833 9.31384 44.3972 8.72779C43.8112 8.14174 43.0163 7.8125 42.1875 7.8125ZM40.168 16.7305L21.418 35.4805C21.2729 35.6257 21.1005 35.741 20.9108 35.8196C20.7212 35.8983 20.5178 35.9387 20.3125 35.9387C20.1072 35.9387 19.9038 35.8983 19.7142 35.8196C19.5245 35.741 19.3521 35.6257 19.207 35.4805L11.3945 27.668C11.1013 27.3748 10.9366 26.9771 10.9366 26.5625C10.9366 26.1479 11.1013 25.7502 11.3945 25.457C11.6877 25.1638 12.0854 24.9991 12.5 24.9991C12.9146 24.9991 13.3123 25.1638 13.6055 25.457L20.3125 32.166L37.957 14.5195C38.2502 14.2263 38.6479 14.0616 39.0625 14.0616C39.4771 14.0616 39.8748 14.2263 40.168 14.5195C40.4612 14.8127 40.6259 15.2104 40.6259 15.625C40.6259 16.0396 40.4612 16.4373 40.168 16.7305Z" fill="#77CEFF"/>
</svg>
