<svg width="24" height="23" viewBox="0 0 24 23" fill="none" xmlns="http://www.w3.org/2000/svg">
    <path d="M22 2L20.8889 3" stroke="#77CEFF" stroke-width="3.36087" stroke-linecap="round" stroke-linejoin="round"/>
    <path d="M2 2L3.11111 3" stroke="#77CEFF" stroke-width="3.36087" stroke-linecap="round" stroke-linejoin="round"/>
    <path d="M22 16L20.8889 15" stroke="#77CEFF" stroke-width="3.36087" stroke-linecap="round" stroke-linejoin="round"/>
    <path d="M2 16L3.11111 15" stroke="#77CEFF" stroke-width="3.36087" stroke-linecap="round" stroke-linejoin="round"/>
    <path d="M8.66675 17.9999H15.3334" stroke="#77CEFF" stroke-width="3.36087" stroke-linecap="round" stroke-linejoin="round"/>
    <path d="M9.77783 21H14.2223" stroke="#77CEFF" stroke-width="3.36087" stroke-linecap="round" stroke-linejoin="round"/>
    <path d="M11.9998 3C7.55525 3 5.27987 4.95029 5.33319 8C5.35918 9.48689 5.88858 10.5 6.99986 11.5C8.11114 12.5 8.66669 13 8.66652 15H15.3331C15.3334 13.0001 15.8889 12.5 16.9997 11.5001C18.1107 10.5001 18.6406 9.48689 18.6665 8C18.7198 4.95029 16.4445 3 11.9998 3Z" stroke="#77CEFF" stroke-width="3.36087" stroke-linecap="round" stroke-linejoin="round"/>
</svg>
