<svg width="100" height="100" viewBox="0 0 100 100" fill="none" xmlns="http://www.w3.org/2000/svg">
    <path d="M50.0033 0C22.3833 0 0 22.3833 0 50C0 77.6167 22.3833 100 50.0017 100C77.6167 100 100 77.6167 100 50C100 22.3833 77.6167 0 50.0033 0ZM50.0033 95.8333C24.7283 95.8333 4.16667 75.2733 4.16667 50C4.16667 24.7267 24.7283 4.16667 50.0033 4.16667C75.2733 4.16667 95.8333 24.7267 95.8333 50C95.8333 75.2733 75.2733 95.8333 50.0033 95.8333Z" fill="#D7C73D"/>
    <path d="M42.1183 42.9883C42.9166 43.8316 44.5149 42.2816 44.2083 41.4249C41.1099 32.9066 36.4416 28.6416 31.7733 28.6416C27.1066 28.6416 22.4383 32.9066 19.3416 41.4249C19.0349 42.2816 20.6316 43.8299 21.4316 42.9883C24.4349 39.8216 28.0283 38.5583 31.7749 38.5583C35.5233 38.5583 39.1183 39.8216 42.1183 42.9883Z" fill="#D7C73D"/>
    <path d="M68.2233 28.6433C63.555 28.6433 58.8867 32.9083 55.7883 41.4266C55.4817 42.2833 57.08 43.8316 57.8783 42.99C60.8833 39.8233 64.4733 38.56 68.2233 38.56C71.9733 38.56 75.5633 39.8233 78.5683 42.99C79.3667 43.8333 80.965 42.2833 80.6583 41.4266C77.5583 32.9066 72.89 28.6433 68.2233 28.6433Z" fill="#D7C73D"/>
    <path d="M75.2968 56.6401C69.5251 55.5368 60.9934 54.4001 50.0001 54.4001H49.9967C39.0067 54.4001 30.4751 55.5368 24.7034 56.6401C22.4534 57.0701 21.6667 58.7468 21.6667 60.0851C21.6667 72.2034 31.0201 84.4018 49.9984 84.4018C68.9801 84.4018 78.3334 72.2051 78.3334 60.0851C78.3334 58.7468 77.5451 57.0701 75.2968 56.6401ZM73.2917 62.9501C73.2001 63.6884 73.0634 64.5751 72.8484 65.5384C72.6134 66.6068 72.4118 67.0984 70.7384 66.8984C67.5384 66.5168 32.4601 66.5168 29.2601 66.8984C27.5867 67.0968 27.3884 66.6051 27.1501 65.5384C26.9384 64.5751 26.7984 63.6901 26.7084 62.9501C26.5584 61.7134 26.6901 60.8368 28.8467 60.4734C32.5051 59.8618 40.2434 58.7868 49.9984 58.7868C59.7534 58.7868 67.4917 59.8618 71.1501 60.4734C73.3067 60.8368 73.4401 61.7118 73.2917 62.9501Z" fill="#D7C73D"/>
</svg>
