<svg width="100" height="100" viewBox="0 0 49 49" fill="none" xmlns="http://www.w3.org/2000/svg">
<g id="&#240;&#159;&#166;&#134; emoji &#34;smiling face with open mouth and smiling eyes&#34;">
<path id="Vector" d="M24.0722 0C10.7756 0 0 10.7756 0 24.0706C0 37.3656 10.7756 48.1412 24.0714 48.1412C37.3656 48.1412 48.1412 37.3656 48.1412 24.0706C48.1412 10.7756 37.3656 0 24.0722 0ZM24.0722 46.1353C11.9045 46.1353 2.00588 36.2375 2.00588 24.0706C2.00588 11.9037 11.9045 2.00588 24.0722 2.00588C36.2375 2.00588 46.1353 11.9037 46.1353 24.0706C46.1353 36.2375 36.2375 46.1353 24.0722 46.1353Z" fill="#667080"/>
<path id="Vector_2" d="M20.2762 20.6951C20.6605 21.1011 21.43 20.3549 21.2824 19.9425C19.7908 15.8417 17.5434 13.7885 15.296 13.7885C13.0494 13.7885 10.802 15.8417 9.31125 19.9425C9.16362 20.3549 9.93227 21.1003 10.3174 20.6951C11.7632 19.1706 13.4931 18.5625 15.2968 18.5625C17.1013 18.5625 18.832 19.1706 20.2762 20.6951Z" fill="#667080"/>
<path id="Vector_3" d="M32.8435 13.7893C30.5961 13.7893 28.3487 15.8425 26.8571 19.9434C26.7095 20.3558 27.479 21.1012 27.8633 20.696C29.3099 19.1715 31.0382 18.5633 32.8435 18.5633C34.6488 18.5633 36.3771 19.1715 37.8237 20.696C38.208 21.102 38.9775 20.3558 38.8299 19.9434C37.3375 15.8417 35.0901 13.7893 32.8435 13.7893Z" fill="#667080"/>
<path id="Vector_4" d="M36.2489 27.2672C33.4703 26.736 29.3631 26.1888 24.0707 26.1888H24.0691C18.7784 26.1888 14.6712 26.736 11.8926 27.2672C10.8094 27.4742 10.4307 28.2814 10.4307 28.9257C10.4307 34.7596 14.9335 40.632 24.0699 40.632C33.2079 40.632 37.7107 34.7604 37.7107 28.9257C37.7107 28.2814 37.3312 27.4742 36.2489 27.2672ZM35.2836 30.3049C35.2395 30.6604 35.1737 31.0872 35.0702 31.551C34.9571 32.0653 34.86 32.302 34.0544 32.2057C32.5139 32.022 15.6268 32.022 14.0862 32.2057C13.2807 32.3012 13.1852 32.0645 13.0705 31.551C12.9686 31.0872 12.9012 30.6612 12.8578 30.3049C12.7856 29.7096 12.849 29.2875 13.8873 29.1126C15.6484 28.8182 19.3738 28.3006 24.0699 28.3006C28.7661 28.3006 32.4914 28.8182 34.2526 29.1126C35.2908 29.2875 35.355 29.7088 35.2836 30.3049Z" fill="#667080"/>
</g>
</svg>
