<svg width="37" height="29" viewBox="0 0 37 29" fill="none" xmlns="http://www.w3.org/2000/svg">
    <path d="M23.4949 26.9096H23.2945C16.4495 26.9096 13.1503 24.795 12.5799 20.0583C12.5182 19.5629 12.9807 19.1158 13.6282 19.0675C14.2449 19.0192 14.8307 19.3937 14.8924 19.8892C15.3395 23.6833 17.6211 25.0971 23.3099 25.0971H23.5103C29.7849 25.0971 32.0049 23.3571 32.0049 18.4392V10.5608C32.0049 5.64292 29.7849 3.90292 23.5103 3.90292H23.3099C17.5903 3.90292 15.3086 5.34083 14.8924 9.2075C14.8153 9.70292 14.2757 10.0775 13.6282 10.0292C12.9807 9.99292 12.5182 9.54583 12.5645 9.05042C13.0886 4.24125 16.4032 2.09042 23.2945 2.09042H23.4949C31.0645 2.09042 34.302 4.62792 34.302 10.5608V18.4392C34.302 24.3721 31.0645 26.9096 23.4949 26.9096Z" fill="#77CEFF"/>
    <path d="M23.125 15.4062H5.58081C4.94873 15.4062 4.42456 14.9954 4.42456 14.5C4.42456 14.0046 4.94873 13.5938 5.58081 13.5938H23.125C23.7571 13.5938 24.2812 14.0046 24.2812 14.5C24.2812 14.9954 23.7571 15.4062 23.125 15.4062Z" fill="#77CEFF"/>
    <path d="M9.01864 19.4542C8.72572 19.4542 8.43281 19.3696 8.20156 19.1883L3.03697 15.1404C2.58989 14.79 2.58989 14.21 3.03697 13.8596L8.20156 9.81167C8.64864 9.46125 9.38864 9.46125 9.83572 9.81167C10.2828 10.1621 10.2828 10.7421 9.83572 11.0925L5.48822 14.5L9.83572 17.9075C10.2828 18.2579 10.2828 18.8379 9.83572 19.1883C9.61989 19.3696 9.31156 19.4542 9.01864 19.4542Z" fill="#77CEFF"/>
</svg>
