<svg width="30" height="30" viewBox="0 0 30 30" fill="none" xmlns="http://www.w3.org/2000/svg">
    <path d="M10 7.1875C9.4875 7.1875 9.0625 6.7625 9.0625 6.25V2.5C9.0625 1.9875 9.4875 1.5625 10 1.5625C10.5125 1.5625 10.9375 1.9875 10.9375 2.5V6.25C10.9375 6.7625 10.5125 7.1875 10 7.1875Z" fill="#6F6B82"/>
    <path d="M20 7.1875C19.4875 7.1875 19.0625 6.7625 19.0625 6.25V2.5C19.0625 1.9875 19.4875 1.5625 20 1.5625C20.5125 1.5625 20.9375 1.9875 20.9375 2.5V6.25C20.9375 6.7625 20.5125 7.1875 20 7.1875Z" fill="#6F6B82"/>
    <path d="M10.625 18.125C10.4625 18.125 10.3 18.0875 10.15 18.025C9.9875 17.9625 9.8625 17.875 9.7375 17.7625C9.5125 17.525 9.375 17.2125 9.375 16.875C9.375 16.7125 9.4125 16.55 9.475 16.4C9.5375 16.25 9.625 16.1125 9.7375 15.9875C9.8625 15.875 9.9875 15.7875 10.15 15.725C10.6 15.5375 11.1625 15.6375 11.5125 15.9875C11.7375 16.225 11.875 16.55 11.875 16.875C11.875 16.95 11.8625 17.0375 11.85 17.125C11.8375 17.2 11.8125 17.275 11.775 17.35C11.75 17.425 11.7125 17.5 11.6625 17.575C11.625 17.6375 11.5625 17.7 11.5125 17.7625C11.275 17.9875 10.95 18.125 10.625 18.125Z" fill="#6F6B82"/>
    <path d="M15 18.125C14.8375 18.125 14.675 18.0875 14.525 18.025C14.3625 17.9625 14.2375 17.875 14.1125 17.7625C13.8875 17.525 13.75 17.2125 13.75 16.875C13.75 16.7125 13.7875 16.55 13.85 16.4C13.9125 16.25 14 16.1125 14.1125 15.9875C14.2375 15.875 14.3625 15.7874 14.525 15.7249C14.975 15.5249 15.5375 15.6375 15.8875 15.9875C16.1125 16.225 16.25 16.55 16.25 16.875C16.25 16.95 16.2375 17.0375 16.225 17.125C16.2125 17.2 16.1875 17.275 16.15 17.35C16.125 17.425 16.0875 17.5 16.0375 17.575C16 17.6375 15.9375 17.7 15.8875 17.7625C15.65 17.9875 15.325 18.125 15 18.125Z" fill="#6F6B82"/>
    <path d="M19.375 18.125C19.2125 18.125 19.05 18.0875 18.9 18.025C18.7375 17.9625 18.6125 17.875 18.4875 17.7625C18.4375 17.7 18.3875 17.6375 18.3375 17.575C18.2875 17.5 18.25 17.425 18.225 17.35C18.1875 17.275 18.1625 17.2 18.15 17.125C18.1375 17.0375 18.125 16.95 18.125 16.875C18.125 16.55 18.2625 16.225 18.4875 15.9875C18.6125 15.875 18.7375 15.7874 18.9 15.7249C19.3625 15.5249 19.9125 15.6375 20.2625 15.9875C20.4875 16.225 20.625 16.55 20.625 16.875C20.625 16.95 20.6125 17.0375 20.6 17.125C20.5875 17.2 20.5625 17.275 20.525 17.35C20.5 17.425 20.4625 17.5 20.4125 17.575C20.375 17.6375 20.3125 17.7 20.2625 17.7625C20.025 17.9875 19.7 18.125 19.375 18.125Z" fill="#6F6B82"/>
    <path d="M10.625 22.5C10.4625 22.5 10.3 22.4625 10.15 22.4C10 22.3375 9.8625 22.25 9.7375 22.1375C9.5125 21.9 9.375 21.575 9.375 21.25C9.375 21.0875 9.4125 20.925 9.475 20.775C9.5375 20.6125 9.625 20.475 9.7375 20.3625C10.2 19.9 11.05 19.9 11.5125 20.3625C11.7375 20.6 11.875 20.925 11.875 21.25C11.875 21.575 11.7375 21.9 11.5125 22.1375C11.275 22.3625 10.95 22.5 10.625 22.5Z" fill="#6F6B82"/>
    <path d="M15 22.5C14.675 22.5 14.35 22.3625 14.1125 22.1375C13.8875 21.9 13.75 21.575 13.75 21.25C13.75 21.0875 13.7875 20.925 13.85 20.775C13.9125 20.6125 14 20.475 14.1125 20.3625C14.575 19.9 15.425 19.9 15.8875 20.3625C16 20.475 16.0875 20.6125 16.15 20.775C16.2125 20.925 16.25 21.0875 16.25 21.25C16.25 21.575 16.1125 21.9 15.8875 22.1375C15.65 22.3625 15.325 22.5 15 22.5Z" fill="#6F6B82"/>
    <path d="M19.375 22.5C19.05 22.5 18.725 22.3625 18.4875 22.1375C18.375 22.025 18.2875 21.8875 18.225 21.725C18.1625 21.575 18.125 21.4125 18.125 21.25C18.125 21.0875 18.1625 20.925 18.225 20.775C18.2875 20.6125 18.375 20.475 18.4875 20.3625C18.775 20.075 19.2125 19.9375 19.6125 20.025C19.7 20.0375 19.775 20.0625 19.85 20.1C19.925 20.125 20 20.1625 20.075 20.2125C20.1375 20.25 20.2 20.3125 20.2625 20.3625C20.4875 20.6 20.625 20.925 20.625 21.25C20.625 21.575 20.4875 21.9 20.2625 22.1375C20.025 22.3625 19.7 22.5 19.375 22.5Z" fill="#6F6B82"/>
    <path d="M25.625 12.2999H4.375C3.8625 12.2999 3.4375 11.8749 3.4375 11.3624C3.4375 10.8499 3.8625 10.4249 4.375 10.4249H25.625C26.1375 10.4249 26.5625 10.8499 26.5625 11.3624C26.5625 11.8749 26.1375 12.2999 25.625 12.2999Z" fill="#6F6B82"/>
    <path d="M20 28.4375H10C5.4375 28.4375 2.8125 25.8125 2.8125 21.25V10.625C2.8125 6.0625 5.4375 3.4375 10 3.4375H20C24.5625 3.4375 27.1875 6.0625 27.1875 10.625V21.25C27.1875 25.8125 24.5625 28.4375 20 28.4375ZM10 5.3125C6.425 5.3125 4.6875 7.05 4.6875 10.625V21.25C4.6875 24.825 6.425 26.5625 10 26.5625H20C23.575 26.5625 25.3125 24.825 25.3125 21.25V10.625C25.3125 7.05 23.575 5.3125 20 5.3125H10Z" fill="#6F6B82"/>
</svg>
