<svg width="28" height="29" viewBox="0 0 28 29" fill="none" xmlns="http://www.w3.org/2000/svg">
    <path d="M26 2L24.6666 3.31579" stroke="#6F6B82" stroke-width="3.36087" stroke-linecap="round" stroke-linejoin="round"/>
    <path d="M2 2L3.33333 3.31579" stroke="#6F6B82" stroke-width="3.36087" stroke-linecap="round" stroke-linejoin="round"/>
    <path d="M26 20.4211L24.6666 19.1053" stroke="#6F6B82" stroke-width="3.36087" stroke-linecap="round" stroke-linejoin="round"/>
    <path d="M2 20.4211L3.33333 19.1053" stroke="#6F6B82" stroke-width="3.36087" stroke-linecap="round" stroke-linejoin="round"/>
    <path d="M10 23.0525H18" stroke="#6F6B82" stroke-width="3.36087" stroke-linecap="round" stroke-linejoin="round"/>
    <path d="M11.3334 27H16.6667" stroke="#6F6B82" stroke-width="3.36087" stroke-linecap="round" stroke-linejoin="round"/>
    <path d="M13.9997 3.3158C8.66622 3.3158 5.93577 5.88197 5.99976 9.89475C6.03094 11.8512 6.66622 13.1842 7.99976 14.5C9.33329 15.8158 9.99996 16.4737 9.99976 19.1053H17.9997C18 16.4738 18.6666 15.8158 19.9996 14.5001C21.3328 13.1844 21.9686 11.8512 21.9997 9.89475C22.0637 5.88197 19.3333 3.3158 13.9997 3.3158Z" stroke="#6F6B82" stroke-width="3.36087" stroke-linecap="round" stroke-linejoin="round"/>
</svg>
