<svg width="25" height="25" viewBox="0 0 25 25" fill="none" xmlns="http://www.w3.org/2000/svg">
    <path d="M17.1875 4.6875C17.1875 2.09863 15.0889 0 12.5 0C9.91113 0 7.8125 2.09863 7.8125 4.6875C7.8125 7.27637 9.91113 9.375 12.5 9.375C15.0889 9.375 17.1875 7.27637 17.1875 4.6875ZM11.4058 11.7725C8.50879 9.99902 3.81641 9.51172 1.45508 9.37744C0.661621 9.33252 0 9.93701 0 10.7002V21.5791C0 22.2788 0.565918 22.8623 1.29346 22.8999C3.42529 23.0117 7.73828 23.4214 10.7192 24.9229C11.1768 25.1533 11.7192 24.8394 11.7192 24.3433V12.332C11.7188 12.104 11.606 11.895 11.4058 11.7725ZM23.5449 9.37744C21.1841 9.51123 16.4912 9.99902 13.5947 11.7725C13.3945 11.895 13.2817 12.1123 13.2817 12.3403V24.3418C13.2817 24.8394 13.8257 25.1538 14.2847 24.9229C17.2651 23.4229 21.5757 23.0132 23.707 22.9014C24.4346 22.8633 25.0005 22.2798 25.0005 21.5801V10.7002C25 9.93701 24.3384 9.33252 23.5449 9.37744Z" fill="#6F6B82"/>
</svg>
