<svg width="100" height="100" viewBox="0 0 100 100" fill="none" xmlns="http://www.w3.org/2000/svg">
<g id="&#240;&#159;&#166;&#134; emoji &#34;loudly crying face&#34;">
<path id="Vector" d="M84.405 94.3617C86.7683 90.5067 87.6667 86.6333 87.7583 82.7583C95.3783 73.985 100 62.535 100 50C100 22.3833 77.6167 0 50 0C22.3833 0 0 22.3833 0 50C0 62.535 4.62167 73.9817 12.24 82.7567C12.33 86.615 13.2233 90.4733 15.565 94.3167C9.26167 94.745 5 95.5583 5 96.4917C5 97.8717 14.3067 98.9917 25.785 98.9917C30.315 98.9917 34.4983 98.8167 37.91 98.52C41.7817 99.48 45.83 100 50 100C51.9767 100 53.9233 99.8733 55.8367 99.65C60.0383 99.8733 64.8283 100 69.9183 100C86.5333 100 100 98.655 100 96.995C100 95.86 93.6983 94.8733 84.405 94.3617ZM50 4.16667C75.275 4.16667 95.8333 24.7267 95.8333 50C95.8333 59.9017 92.6667 69.0717 87.3083 76.5733C85.895 67.4467 81.82 58.3333 83.3567 49.3783C83.8283 48.675 84.285 47.9267 84.7083 47.125C85.0567 46.4583 84.1417 46.1583 83.025 45.4C75.9833 50.9333 64.5933 50.4233 58.2067 45.4033C57.09 46.1583 56.1783 46.4583 56.5233 47.125C60.195 54.055 65.81 57.325 71.3383 57.0083C70.6317 67.63 78.0533 77.255 75.6783 87.9467C68.3467 92.9217 59.5083 95.8333 50 95.8333C40.4917 95.8333 31.65 92.9217 24.32 87.9433C21.945 77.2567 29.3683 67.63 28.6617 57.0083C34.19 57.325 39.8083 54.055 43.48 47.125C43.825 46.4583 42.9133 46.1583 41.7967 45.4C34.755 50.9333 23.3633 50.4233 16.9767 45.4033C15.86 46.1583 14.9483 46.4583 15.2933 47.125C15.7183 47.925 16.1717 48.675 16.645 49.38C18.18 58.3333 14.105 67.445 12.69 76.5717C7.33167 69.07 4.16667 59.9 4.16667 50C4.16667 24.7267 24.7267 4.16667 50 4.16667Z" fill="#2583D0"/>
<path id="Vector_2" d="M28.7715 73.3333C27.5315 76.5333 29.3049 81.6666 29.3049 81.6666C31.5215 88.1383 31.2099 90 49.9982 90C68.7649 90 68.4749 88.1383 70.6899 81.6666C70.6899 81.6666 72.4665 76.5333 71.2265 73.3333C68.9015 67.345 63.2615 63.3333 49.9949 63.3333C36.7365 63.3333 31.0932 67.345 28.7715 73.3333ZM35.3282 70.28C35.3282 70.28 38.6782 66.6666 49.9965 66.6666C61.3182 66.6666 64.6715 70.28 64.6715 70.28C64.9482 70.5783 65.0749 71.175 64.9549 71.6083L64.6982 72.5466C64.5799 72.9783 64.1865 73.3333 63.8249 73.3333H36.1715C35.8099 73.3333 35.4199 72.9783 35.2999 72.545L35.0432 71.6066C34.9249 71.175 35.0549 70.5783 35.3282 70.28Z" fill="#2583D0"/>
<path id="Vector_3" d="M83.7299 37.7067C84.9182 37.5867 84.3815 33.9684 83.4015 34.0717C76.3699 34.7067 69.4199 32.1767 64.4465 27.1701C63.7632 26.4634 61.0215 28.8884 61.8549 29.7417C67.5982 35.5234 75.6182 38.4434 83.7299 37.7067Z" fill="#2583D0"/>
<path id="Vector_4" d="M16.2616 37.7083C24.3766 38.44 32.4016 35.5233 38.1399 29.7466C38.9699 28.8866 36.2316 26.4616 35.5516 27.1716C30.5749 32.1783 23.6216 34.7066 16.5916 34.0716C15.6166 33.965 15.0766 37.585 16.2616 37.7083Z" fill="#2583D0"/>
</g>
</svg>
