<svg width="100" height="100" viewBox="0 0 49 49" fill="none" xmlns="http://www.w3.org/2000/svg">
<g id="&#240;&#159;&#166;&#134; emoji &#34;loudly crying face&#34;">
<path id="Vector" d="M41.2532 45.4268C42.391 43.571 42.8234 41.7063 42.8675 39.8409C46.5359 35.6173 48.7608 30.1051 48.7608 24.0706C48.7608 10.7756 37.9852 0 24.6902 0C11.3952 0 0.619629 10.7756 0.619629 24.0706C0.619629 30.1051 2.84455 35.6157 6.51211 39.8401C6.55544 41.6975 6.9855 43.555 8.11281 45.4052C5.07831 45.6114 3.02669 46.0029 3.02669 46.4523C3.02669 47.1166 7.50703 47.6558 13.0328 47.6558C15.2136 47.6558 17.2275 47.5715 18.87 47.4287C20.7338 47.8909 22.6827 48.1412 24.6902 48.1412C25.6418 48.1412 26.579 48.0802 27.5001 47.9727C29.5228 48.0802 31.8288 48.1412 34.2792 48.1412C42.2778 48.1412 48.7608 47.4937 48.7608 46.6946C48.7608 46.1482 45.7271 45.6732 41.2532 45.4268ZM24.6902 2.00588C36.8579 2.00588 46.755 11.9037 46.755 24.0706C46.755 28.8374 45.2305 33.2519 42.6509 36.8633C41.9705 32.4696 40.0088 28.0824 40.7485 23.7713C40.9756 23.4327 41.1954 23.0725 41.3992 22.6865C41.5669 22.3656 41.1264 22.2212 40.5889 21.8561C37.1989 24.5199 31.7156 24.2744 28.641 21.8577C28.1034 22.2212 27.6646 22.3656 27.8306 22.6865C29.5982 26.0227 32.3014 27.597 34.9628 27.4445C34.6226 32.5579 38.1954 37.1915 37.0521 42.3386C33.5225 44.7336 29.2677 46.1353 24.6902 46.1353C20.1128 46.1353 15.8563 44.7336 12.3276 42.337C11.1842 37.1923 14.7579 32.5579 14.4177 27.4445C17.0791 27.597 19.7838 26.0227 21.5514 22.6865C21.7175 22.3656 21.2786 22.2212 20.741 21.8561C17.3511 24.5199 11.867 24.2744 8.7924 21.8577C8.25482 22.2212 7.81594 22.3656 7.98202 22.6865C8.18662 23.0717 8.40487 23.4327 8.63273 23.7721C9.3717 28.0824 7.40995 32.4688 6.72875 36.8625C4.14918 33.2511 2.62551 28.8366 2.62551 24.0706C2.62551 11.9037 12.5233 2.00588 24.6902 2.00588Z" fill="#667080"/>
<path id="Vector_2" d="M14.4707 35.3035C13.8738 36.844 14.7275 39.3153 14.7275 39.3153C15.7946 42.4308 15.6446 43.327 24.6895 43.327C33.724 43.327 33.5844 42.4308 34.6507 39.3153C34.6507 39.3153 35.506 36.844 34.9091 35.3035C33.7898 32.4206 31.0746 30.4894 24.6879 30.4894C18.3052 30.4894 15.5884 32.4206 14.4707 35.3035ZM17.6272 33.8336C17.6272 33.8336 19.2399 32.0941 24.6887 32.0941C30.1391 32.0941 31.7534 33.8336 31.7534 33.8336C31.8866 33.9772 31.9476 34.2645 31.8898 34.4731L31.7663 34.9248C31.7093 35.1326 31.5199 35.3035 31.3458 35.3035H18.0332C17.8591 35.3035 17.6713 35.1326 17.6135 34.924L17.49 34.4723C17.433 34.2645 17.4956 33.9772 17.6272 33.8336Z" fill="#667080"/>
<path id="Vector_3" d="M40.9283 18.1525C41.5003 18.0947 41.242 16.3528 40.7702 16.4026C37.3851 16.7082 34.0392 15.4903 31.645 13.08C31.3161 12.7398 29.9962 13.9072 30.3974 14.318C33.1623 17.1014 37.0232 18.5071 40.9283 18.1525Z" fill="#667080"/>
<path id="Vector_4" d="M8.44824 18.1533C12.3549 18.5055 16.2182 17.1014 18.9807 14.3204C19.3803 13.9064 18.062 12.739 17.7347 13.0808C15.3389 15.491 11.9914 16.7082 8.60711 16.4025C8.13773 16.3512 7.87777 18.0939 8.44824 18.1533Z" fill="#667080"/>
</g>
</svg>
